<svg id="b629e550-7e3f-42b6-ab50-6679a4b7fed8" data-name="Layer 1" xmlns="http://www.w3.org/2000/svg" viewBox="0 0 80 24"><path d="M6.57,11A2.17,2.17,0,0,0,5.08,13a2.2,2.2,0,0,0,3.47,1.8L13.22,17s-.2.3-.34.46a1.64,1.64,0,0,1-1.41.62H3.08a1.71,1.71,0,0,1-1.53-.79A6.86,6.86,0,0,1,.13,13,7.15,7.15,0,0,1,12.44,8.09l-4.22,3A2.15,2.15,0,0,0,6.57,11Zm.59.65a1.44,1.44,0,1,0,1.56,1.3,1.44,1.44,0,0,0-1.56-1.3Zm24-5.72H30.07V18.1h2.34V14.42a.47.47,0,0,1,.4-.5c.33,0,.65.29,1,.86l1.79,3.32h3.05l-3.53-6,3.5-3.74H35.54L32.41,12V7.13A1.25,1.25,0,0,0,31.19,5.89Zm18.1,12.17L46.64,8.31h2.49l1.52,6.76,1.23-5.86a1.08,1.08,0,0,1,1.17-.88h1.42l1.3,6.75,1.37-5.86a1.09,1.09,0,0,1,1.18-.87h1.61l-2.7,9.74H54.66l-1.38-6.77-1.43,6.76Zm13.09-7.15H60a2.72,2.72,0,0,1,1-1.8,4.07,4.07,0,0,1,2.72-.81,5.31,5.31,0,0,1,3,.67,2.27,2.27,0,0,1,1,2v3.21a4.08,4.08,0,0,1-.51,2.21A3.14,3.14,0,0,1,66,17.52a4.53,4.53,0,0,1-1.57.47,12.08,12.08,0,0,1-1.47.09,3.59,3.59,0,0,1-2.22-.69,2.62,2.62,0,0,1-1-2.28A2.44,2.44,0,0,1,60.64,13a4.87,4.87,0,0,1,2.2-.85c.12,0,.78-.12,1-.14,1-.14,1.55-.45,1.55-.92a.67.67,0,0,0-.55-.69,3.29,3.29,0,0,0-1.89,0,.94.94,0,0,0-.56.53Zm3,2.26a6.69,6.69,0,0,1-1.37.46l-.82.17a2.07,2.07,0,0,0-.91.46,1.37,1.37,0,0,0-.25.78,1.1,1.1,0,0,0,.32.84,1.31,1.31,0,0,0,.91.29,2.11,2.11,0,0,0,1.56-.57,2,2,0,0,0,.56-1.55Zm5.21,4.9H68.32V5.92h1.11a1.18,1.18,0,0,1,.85.34,1.07,1.07,0,0,1,.35.83Zm1.72-1.3a5.3,5.3,0,0,1-1.13-3.63A5.26,5.26,0,0,1,72.31,9.6a4,4,0,0,1,3.15-1.3,4.21,4.21,0,0,1,3.28,1.27,5.34,5.34,0,0,1,1.13,3.64q0,.31,0,.63H73.73a2.44,2.44,0,0,0,.53,1.63,1.67,1.67,0,0,0,1.37.56,2.1,2.1,0,0,0,1.68-.85A1.08,1.08,0,0,1,78,15h1.76a3.86,3.86,0,0,1-1.48,2.26,4.59,4.59,0,0,1-2.76.82,3.9,3.9,0,0,1-3.14-1.31Zm1.57-4.52h3.6a2.28,2.28,0,0,0-.5-1.41,1.66,1.66,0,0,0-1.3-.49,1.73,1.73,0,0,0-1.28.49A2,2,0,0,0,73.92,12.25ZM39.1,16.77A5.25,5.25,0,0,1,38,13.14,5.26,5.26,0,0,1,39.06,9.6a4,4,0,0,1,3.15-1.3,4.21,4.21,0,0,1,3.28,1.27,5.34,5.34,0,0,1,1.13,3.64q0,.31,0,.63H40.48A2.5,2.5,0,0,0,41,15.47a1.7,1.7,0,0,0,1.38.56,2.07,2.07,0,0,0,1.68-.85,1.07,1.07,0,0,1,.65-.18h1.77A3.87,3.87,0,0,1,45,17.26a4.56,4.56,0,0,1-2.75.82,3.92,3.92,0,0,1-3.15-1.31Zm1.38-4.52h3.6a2.28,2.28,0,0,0-.5-1.41,1.67,1.67,0,0,0-1.3-.49,1.73,1.73,0,0,0-1.28.49,2,2,0,0,0-.52,1.41ZM26.67,7.91v-2h1.24a1,1,0,0,1,1.14,1.17v.85m-1.14,1a1,1,0,0,1,1.14,1.15v8H26.67V8.93Zm-2,4.42c0,3.12-1.46,4.7-4.36,4.75s-4.39-1.38-4.39-4.2v-8h1.11a1.24,1.24,0,0,1,.85.34,1.11,1.11,0,0,1,.35.83v2.8a3.17,3.17,0,0,1,2.7-1.46Q25.88,8.57,25.88,13.35Zm-2.41-.11c-.06-1.8-.71-2.7-2-2.7s-1.93.89-2,2.7.62,2.86,2,2.86,2-1,2-2.85Z" fill="#fff"/><path d="M13,8.75,9,11.61a2.19,2.19,0,0,1,.22,2.56l4.5,2.1A7.16,7.16,0,0,0,13,8.75Z" fill="#fff"/></svg>